<mxfile host="app.diagrams.net" agent="Mozilla/5.0 (Windows NT 10.0; Win64; x64) AppleWebKit/537.36 (KHTML, like Gecko) Chrome/131.0.0.0 Safari/537.36 Edg/131.0.0.0" version="24.8.6">
  <diagram name="Page-1" id="a2noEjGUrxi2LQBduwJM">
    <mxGraphModel dx="1892" dy="565" grid="1" gridSize="10" guides="1" tooltips="1" connect="1" arrows="1" fold="1" page="1" pageScale="1" pageWidth="850" pageHeight="1100" math="0" shadow="0">
      <root>
        <mxCell id="0" />
        <mxCell id="1" parent="0" />
        <mxCell id="OH-SeRZGk3RYWAUox0oA-34" value="แก้ไขโจทย์ปัญหา" style="swimlane;fontFamily=Sarabun;fontSource=https%3A%2F%2Ffonts.googleapis.com%2Fcss%3Ffamily%3DSarabun;" parent="1" vertex="1">
          <mxGeometry x="-745" y="40" width="640" height="360" as="geometry" />
        </mxCell>
        <mxCell id="Bfbc1K0Z-ESx8tG73KyT-2" value="OUTPUT&lt;div&gt;&lt;br&gt;&lt;/div&gt;&lt;div&gt;Hello World&lt;/div&gt;" style="shape=parallelogram;perimeter=parallelogramPerimeter;whiteSpace=wrap;html=1;fixedSize=1;" parent="OH-SeRZGk3RYWAUox0oA-34" vertex="1">
          <mxGeometry x="220" y="150" width="200" height="60" as="geometry" />
        </mxCell>
        <mxCell id="Bfbc1K0Z-ESx8tG73KyT-3" value="" style="endArrow=classic;html=1;rounded=0;exitX=0.5;exitY=1;exitDx=0;exitDy=0;entryX=0.5;entryY=0;entryDx=0;entryDy=0;entryPerimeter=0;" parent="OH-SeRZGk3RYWAUox0oA-34" source="Bfbc1K0Z-ESx8tG73KyT-2" edge="1" target="6tdealWEWWK-yycc04rh-1">
          <mxGeometry width="50" height="50" relative="1" as="geometry">
            <mxPoint x="320" y="270" as="sourcePoint" />
            <mxPoint x="320" y="240" as="targetPoint" />
          </mxGeometry>
        </mxCell>
        <mxCell id="6tdealWEWWK-yycc04rh-1" value="END" style="strokeWidth=2;html=1;shape=mxgraph.flowchart.terminator;whiteSpace=wrap;" vertex="1" parent="OH-SeRZGk3RYWAUox0oA-34">
          <mxGeometry x="270" y="260" width="100" height="60" as="geometry" />
        </mxCell>
        <mxCell id="6tdealWEWWK-yycc04rh-2" value="START" style="strokeWidth=2;html=1;shape=mxgraph.flowchart.terminator;whiteSpace=wrap;" vertex="1" parent="OH-SeRZGk3RYWAUox0oA-34">
          <mxGeometry x="270" y="40" width="100" height="60" as="geometry" />
        </mxCell>
        <mxCell id="Bfbc1K0Z-ESx8tG73KyT-1" value="" style="endArrow=classic;html=1;rounded=0;entryX=0.5;entryY=0;entryDx=0;entryDy=0;exitX=0.5;exitY=1;exitDx=0;exitDy=0;exitPerimeter=0;" parent="OH-SeRZGk3RYWAUox0oA-34" source="6tdealWEWWK-yycc04rh-2" edge="1" target="Bfbc1K0Z-ESx8tG73KyT-2">
          <mxGeometry width="50" height="50" relative="1" as="geometry">
            <mxPoint x="320" y="100" as="sourcePoint" />
            <mxPoint x="320" y="120" as="targetPoint" />
          </mxGeometry>
        </mxCell>
      </root>
    </mxGraphModel>
  </diagram>
</mxfile>
